# xmcd
#
# Track frame offsets:
# 150
# 17397
# 33989
# 51114
# 71834
# 90244
# 105056
# 121213
# 143312
# 158299
# 176055
# 189990
#
# Disc length: 2739 seconds
#
#
# Revision: 0
# Processed by: cddbd v1.5.2PL0 Copyright (c) Steve Scherf et al.
# Submitted via: FreeRIP 2.945 
#
DISCID=7d0ab10c
DTITLE=Odilon Dias - Do Jeito que o Povo Gosta
DYEAR=1900
DGENRE=
TTITLE0=Vendendo Cebo em Rodeio
TTITLE1=Alisando o meu Polaco
TTITLE2=Do Jeito que o Povo Gosta
TTITLE3=Saudade da Querência
TTITLE4=Paixão de um Gaúcho
TTITLE5=Um pedido do Meu Pai
TTITLE6=Viajando sem Passaporte
TTITLE7=Sou Gaúcho sim Senhor
TTITLE8=Mensagem Farrapa
TTITLE9=Mensagem para as Mães
TTITLE10=Dando o Troco
TTITLE11=Chasque pra os Missioneiros
EXTD=
EXTT0=
EXTT1=
EXTT2=
EXTT3=
EXTT4=
EXTT5=
EXTT6=
EXTT7=
EXTT8=
EXTT9=
EXTT10=
EXTT11=
PLAYORDER=
